<svg width="105" height="150" viewBox="0 0 105 150" fill="none" xmlns="http://www.w3.org/2000/svg">
<path fill-rule="evenodd" clip-rule="evenodd" d="M46.6014 11.6731H29.1996C19.5889 11.6731 11.7978 19.3819 11.7978 28.891C11.7978 38.4002 19.5889 46.1089 29.1996 46.1089H46.6014V11.6731ZM46.6014 0H58.3992H75.801C91.928 0 105 12.9349 105 28.891C105 38.307 100.448 46.6711 93.4016 51.9455C100.448 57.22 105 65.584 105 75.0001C105 90.9561 91.928 103.891 75.801 103.891C69.2805 103.891 63.2591 101.776 58.3992 98.2023V103.891V121.109C58.3992 137.065 45.326 150 29.1996 150C13.073 150 0 137.065 0 121.109C0 111.692 4.55255 103.329 11.5987 98.0544C4.55255 92.7799 0 84.416 0 75.0001C0 65.584 4.55266 57.22 11.5989 51.9456C4.55266 46.6711 0 38.307 0 28.891C0 12.9349 13.073 0 29.1996 0H46.6014ZM58.3992 11.6731V46.1089H75.801C85.4121 46.1089 93.2022 38.4002 93.2022 28.891C93.2022 19.3819 85.4121 11.6731 75.801 11.6731H58.3992ZM29.1996 92.2177H46.6014V75.0444V75.0001V74.9557V57.7822H29.1996C19.5889 57.7822 11.7978 65.4909 11.7978 75.0001C11.7978 84.4865 19.5516 92.1811 29.1306 92.2178L29.1996 92.2177ZM11.7978 121.109C11.7978 111.622 19.5516 103.928 29.1306 103.891L29.1996 103.891H46.6014V121.109C46.6014 130.618 38.8103 138.327 29.1996 138.327C19.5889 138.327 11.7978 130.618 11.7978 121.109ZM58.3992 74.9657C58.418 65.4723 66.2018 57.7822 75.801 57.7822C85.4121 57.7822 93.2022 65.4909 93.2022 75.0001C93.2022 84.5092 85.4121 92.2179 75.801 92.2179C66.2018 92.2179 58.418 84.5278 58.3992 75.0344V74.9657Z" fill="#161616"/>
</svg>
