<svg width="141" height="141" viewBox="0 0 141 141" fill="none" xmlns="http://www.w3.org/2000/svg">
<path d="M70.3237 0C67.8562 0 65.7412 0.88125 63.9787 2.64375L51.1125 15.51L67.3275 31.725C69.325 31.02 71.3225 30.9025 73.32 31.3725C75.3175 31.8425 77.0506 32.8119 78.5194 34.2806C79.9881 35.7494 80.9281 37.4825 81.3394 39.48C81.7506 41.4775 81.6625 43.475 81.075 45.4725L96.585 60.9825C98.5825 60.395 100.58 60.3069 102.577 60.7181C104.575 61.1294 106.337 62.0987 107.865 63.6262C109.98 65.7412 111.037 68.2969 111.037 71.2931C111.037 74.2894 109.98 76.8156 107.865 78.8719C105.75 80.9281 103.194 81.9562 100.198 81.9562C97.2019 81.9562 94.6462 80.9575 92.5312 78.96C91.0037 77.315 90.0344 75.435 89.6231 73.32C89.2119 71.205 89.4175 69.1487 90.24 67.1512L75.6112 52.5225V90.945C76.6687 91.415 77.6087 92.0612 78.4312 92.8837C80.5462 94.9987 81.6037 97.5544 81.6037 100.551C81.6037 103.547 80.5462 106.102 78.4312 108.217C76.3162 110.332 73.7606 111.39 70.7644 111.39C67.7681 111.39 65.2419 110.332 63.1856 108.217C61.1294 106.102 60.1012 103.547 60.1012 100.551C60.1012 97.5544 61.1587 94.9987 63.2737 92.8837C64.2137 91.9437 65.3887 91.18 66.7987 90.5925V51.8175C65.3887 51.3475 64.2137 50.5837 63.2737 49.5262C61.6287 47.9987 60.6006 46.1481 60.1894 43.9744C59.7781 41.8006 59.9837 39.715 60.8062 37.7175L44.9437 21.6787L2.64375 63.9787C0.88125 65.7412 0 67.8856 0 70.4119C0 72.9381 0.88125 75.0825 2.64375 76.845L64.155 138.356C65.9175 140.119 68.0619 141 70.5881 141C73.1144 141 75.2587 140.119 77.0212 138.356L138.356 77.0212C140.119 75.2587 141 73.1144 141 70.5881C141 68.0619 140.119 65.9175 138.356 64.155L76.845 2.64375C75.0825 0.88125 72.9087 0 70.3237 0Z" fill="black"/>
</svg>
