<svg width="409" height="83" viewBox="0 0 409 83" fill="none" xmlns="http://www.w3.org/2000/svg">
<path d="M271.973 0H343.08V13.1611H314.845V82.1794H300.727V13.1611H271.973V0ZM154.672 0V13.1611H97.578V34.3019H143.564V47.3594H97.578V69.1219H154.672V82.1794H83.5641V0H154.879H154.672ZM190.277 0H171.8L238.028 82.2831H256.609L223.391 41.1415L256.609 0.103631H238.028L214.153 29.7421L190.277 0.103631V0ZM209.274 58.7588L199.931 47.3594L171.8 82.2831H190.277L209.274 58.7588Z" fill="#161616"/>
<path d="M84.0832 82.1794L17.6471 0H0V82.1794H14.1177V17.6173L66.2285 82.1794H84.0832ZM346.298 81.7649C345.26 81.7649 344.43 81.3504 343.703 80.7286C342.976 80.1068 342.561 79.0705 342.561 78.0342C342.561 76.9979 342.873 76.1688 343.599 75.4434C344.326 74.718 345.26 74.4071 346.298 74.4071C347.336 74.4071 348.167 74.718 348.893 75.4434C349.501 75.9972 349.896 76.7456 350.01 77.5593C350.124 78.373 349.949 79.2008 349.516 79.8996C349.192 80.4428 348.737 80.8974 348.194 81.2229C347.651 81.5484 347.035 81.7346 346.402 81.7649H346.298ZM370.381 47.0485H376.61V71.1945C376.61 73.3708 376.194 75.3398 375.26 76.8942C374.324 78.4583 372.954 79.7181 371.316 80.5213C369.655 81.3504 367.682 81.8685 365.399 81.8685C363.322 81.8685 361.558 81.454 359.897 80.8322C358.236 80.2104 356.99 78.9669 356.056 77.516C355.122 76.1688 354.603 74.4071 354.603 72.3345H360.831C360.935 73.1635 361.143 73.9926 361.558 74.6144C361.973 75.2362 362.596 75.8579 363.219 76.1688C363.945 76.5834 364.776 76.687 365.71 76.687C366.748 76.687 367.579 76.4797 368.201 76.0652C368.934 75.6285 369.514 74.9772 369.862 74.1998C370.174 73.3708 370.381 72.3345 370.381 71.0909V47.1521V47.0485ZM402.458 56.4789C402.395 55.7889 402.175 55.1223 401.815 54.5297C401.455 53.9371 400.965 53.4342 400.381 53.0591C399.043 52.2382 397.487 51.8409 395.918 51.9192C394.568 51.9192 393.426 52.1264 392.492 52.4373C391.558 52.8518 390.831 53.4736 390.416 54.0954C389.945 54.6712 389.662 55.3776 389.606 56.1191C389.551 56.8605 389.725 57.6012 390.105 58.2407C390.416 58.7588 390.831 59.1733 391.454 59.4842L393.323 60.5205L395.399 61.0387L398.72 61.8677C400.07 62.1786 401.316 62.5932 402.561 63.1113C403.751 63.5731 404.87 64.2011 405.883 64.9767C406.884 65.7862 407.686 66.8146 408.226 67.9826C408.766 69.1505 409.03 70.4268 408.997 71.7127C408.997 73.7853 408.478 75.5471 407.44 76.9979C406.297 78.6181 404.711 79.8769 402.873 80.625C401.004 81.454 398.617 81.8685 395.814 81.8685C393.115 81.8685 390.727 81.454 388.755 80.625C386.679 79.7959 385.226 78.5524 384.084 76.9979C382.929 75.2824 382.314 73.2614 382.319 71.1945H388.547C388.584 72.2669 388.953 73.3014 389.604 74.1553C390.255 75.0092 391.155 75.6403 392.181 75.9616C393.219 76.3761 394.464 76.5834 395.71 76.5834C397.06 76.5834 398.305 76.3761 399.343 75.9616C400.381 75.5471 401.212 74.9253 401.835 74.1998C402.374 73.4823 402.665 72.6096 402.665 71.7127C402.665 70.78 402.458 70.0546 401.938 69.4328C401.27 68.8673 400.539 68.3805 399.759 67.982L396.437 66.9457L392.492 65.9094C389.586 65.1839 387.302 64.1476 385.641 62.5932C384.812 61.8552 384.158 60.9421 383.728 59.9203C383.297 58.8985 383.099 57.7937 383.15 56.6862C383.133 54.8094 383.755 52.9826 384.914 51.5046C386.03 49.8998 387.577 48.6424 389.378 47.8776C391.454 47.0485 393.53 46.634 396.022 46.634C398.409 46.634 400.589 47.0485 402.458 47.8776C404.326 48.7066 405.779 49.9502 406.921 51.401C407.959 52.8518 408.478 54.5099 408.478 56.5826H402.458V56.4789Z" fill="#161616"/>
</svg>
