<svg width="130" height="130" viewBox="0 0 130 130" fill="none" xmlns="http://www.w3.org/2000/svg">
<path d="M59.54 1.73485C62.79 -0.105467 66.9337 -0.113592 70.1025 1.73485L118.625 29.0877C121.66 30.7939 123.691 34.178 123.662 37.6758V92.5195C123.683 96.1636 121.452 99.6208 118.251 101.295L69.9887 128.521C68.338 129.434 66.4731 129.887 64.5878 129.835C62.7025 129.783 60.8656 129.227 59.2678 128.225L44.785 119.856C43.7978 119.267 42.6887 118.8 41.99 117.845C42.6075 117.016 43.7043 116.911 44.5981 116.545C46.6131 115.903 48.4575 114.92 50.31 113.88C50.7772 113.555 51.35 113.677 51.7968 113.97L64.1468 121.111C65.0284 121.619 65.9222 120.949 66.6778 120.522L114.067 93.7789C114.652 93.4945 114.977 92.877 114.928 92.2352V37.9195C114.993 37.1883 114.575 36.522 113.912 36.2255L65.7718 9.11641C65.4944 8.92452 65.1653 8.8214 64.8279 8.82067C64.4906 8.81995 64.161 8.92166 63.8828 9.11235L15.8112 36.2783C15.1612 36.5748 14.7143 37.233 14.7956 37.9642V92.2798C14.7387 92.9217 15.08 93.527 15.669 93.8033L28.5147 101.055C30.9278 102.355 33.8893 103.086 36.5462 102.131C37.7089 101.693 38.7098 100.91 39.4149 99.887C40.1199 98.864 40.4954 97.6498 40.4909 96.4073L40.5031 42.4167C40.4462 41.6164 41.2018 40.9542 41.9778 41.0355H48.1528C48.9653 41.0152 49.6031 41.8764 49.4934 42.6808L49.4812 97.0127C49.4853 101.839 47.5028 107.088 43.0381 109.456C37.5375 112.3 30.7368 111.703 25.3012 108.969L11.4887 101.331C8.23872 99.7061 6.05716 96.1961 6.07747 92.5561V37.7123C6.09099 35.9298 6.58102 34.1834 7.49677 32.654C8.41253 31.1247 9.72067 29.8681 11.2856 29.0145L59.54 1.73485ZM73.5312 39.7517C80.5472 39.3455 88.0587 39.4836 94.3718 42.9408C99.259 45.5895 101.969 51.147 102.058 56.5827C101.92 57.3139 101.156 57.7202 100.457 57.6673C98.4262 57.6633 96.3868 57.6958 94.3475 57.6552C93.4822 57.6877 92.9825 56.8914 92.8728 56.1277C92.2878 53.5277 90.87 50.9561 88.4243 49.7008C84.6706 47.8198 80.3156 47.9133 76.2206 47.9539C73.2306 48.1164 70.0172 48.3723 67.4862 50.1273C65.5362 51.4598 64.9512 54.1898 65.6459 56.3105C66.2959 57.8664 68.0956 58.3661 69.5622 58.8292C78.0203 61.0392 86.9781 60.8605 95.2778 63.7327C98.7106 64.9189 102.07 67.2264 103.248 70.8217C104.784 75.6398 104.114 81.4005 100.689 85.268C97.9103 88.453 93.864 90.143 89.8218 91.1261C84.4472 92.3245 78.8734 92.353 73.4175 91.8167C68.2865 91.2317 62.9484 89.883 58.9875 86.3892C55.5993 83.448 53.95 78.8655 54.1125 74.4455C54.1531 73.698 54.8965 73.178 55.6156 73.2389H61.7093C62.53 73.182 63.1312 73.8889 63.1718 74.6608C63.5497 77.0983 64.48 79.7389 66.6412 81.1608C70.8093 83.8502 76.0378 83.6633 80.8072 83.7405C84.76 83.5658 89.1962 83.513 92.4259 80.8967C94.1321 79.4058 94.6318 76.9155 94.1728 74.7705C93.6731 72.9586 91.7353 72.1177 90.1103 71.5205C81.7618 68.8798 72.7025 69.8386 64.4353 66.8486C61.0797 65.6623 57.8337 63.4198 56.5459 59.9708C54.7462 55.0958 55.5709 49.0548 59.3612 45.3173C63.0175 41.6002 68.38 40.1661 73.4581 39.6542L73.5312 39.7517Z" fill="#161616"/>
</svg>
