<svg width="122" height="122" viewBox="0 0 122 122" fill="none" xmlns="http://www.w3.org/2000/svg">
<g clip-path="url(#clip0_20_41)">
<path d="M87.0673 0C82.3271 0.0352603 77.6144 0.724626 73.0627 2.04858L72.7425 2.15025C69.8715 1.64287 66.965 1.36242 64.05 1.3115C58.0618 1.20983 52.9175 2.66367 48.7695 5.08333C44.6825 3.66508 36.2035 1.22 27.267 1.708C21.045 2.04858 14.2537 3.93958 9.22116 9.25167C4.20391 14.5637 1.55041 22.7835 2.10957 33.9668C2.26207 37.0524 3.14149 42.0849 4.60041 48.6017C6.05932 55.1186 8.10791 62.7487 10.6648 69.7077C13.2217 76.6719 16.0227 82.9244 20.3994 87.1741C22.5852 89.304 25.5946 91.0933 29.1427 90.9459C31.6336 90.8442 33.8855 89.7513 35.8273 88.1399C36.7728 89.3853 37.7844 89.9293 38.7045 90.4325C39.8635 91.0679 40.992 91.5 42.1612 91.7847C44.2606 92.3082 47.8545 93.0097 52.0635 92.293C53.497 92.0541 55.0067 91.5864 56.5114 90.9205C56.5673 92.598 56.6334 94.2399 56.6995 95.9022C56.9079 101.168 57.0401 106.033 58.621 110.298C58.8751 110.995 59.5716 114.583 62.3166 117.75C65.0616 120.922 70.4397 122.9 76.5652 121.588C80.886 120.663 86.3811 118.996 90.0309 113.801C93.6401 108.666 95.2667 101.301 95.587 89.3548C95.6683 88.7092 95.7649 88.1602 95.8666 87.6468L96.7257 87.7231H96.8273C101.438 87.9315 106.44 87.2757 110.618 85.3339C114.319 83.6208 117.12 81.8874 119.158 78.812C119.667 78.0495 120.226 77.1294 120.378 75.5434C120.531 73.9574 119.621 71.4767 118.111 70.333C115.087 68.0353 113.185 68.9097 111.147 69.3316C109.139 69.7755 107.093 70.0241 105.037 70.0737C110.913 60.1765 115.127 49.6642 117.532 40.3617C118.955 34.8717 119.753 29.8087 119.819 25.3811C119.885 20.9535 119.524 17.0342 116.871 13.6437C108.58 3.05 96.9239 0.122 87.9061 0.0203333C87.6265 0.01525 87.3469 0.0101667 87.0673 0.01525V0ZM86.8284 3.25333C95.3582 3.172 106.257 5.56625 114.08 15.5652C115.839 17.812 116.363 21.0958 116.302 25.1422C116.235 29.1834 115.488 34.0227 114.121 39.3247C111.467 49.593 106.455 61.5642 99.3944 72.3053C99.6438 72.4825 99.9134 72.6293 100.198 72.7425C101.672 73.3525 105.032 73.8761 111.737 72.4985C113.424 72.1427 114.66 71.9037 115.941 72.8797C116.252 73.1436 116.498 73.476 116.659 73.8508C116.821 74.2256 116.893 74.6327 116.871 75.0402C116.802 75.6572 116.575 76.2458 116.21 76.7482C114.914 78.6951 112.357 80.5403 109.078 82.0602C106.176 83.4124 102.012 84.119 98.3218 84.1597C96.4715 84.18 94.7635 84.0377 93.3147 83.5853L93.2232 83.5497C92.6641 88.938 91.378 99.5774 90.5392 104.432C89.8682 108.346 88.694 111.457 86.4522 113.785C84.2156 116.113 81.0487 117.516 76.7888 118.431C71.5123 119.565 67.6642 118.345 65.1836 116.256C62.708 114.172 61.5744 111.406 60.8932 109.714C60.4256 108.544 60.1816 107.03 59.9477 105.006C59.7139 102.983 59.5411 100.508 59.4241 97.7169C59.2684 93.4437 59.2176 89.1674 59.2717 84.8917C57.0675 86.9104 54.3286 88.2517 51.3823 88.755C47.8799 89.3497 44.7537 88.7652 42.8881 88.2975C41.9684 88.0665 41.0806 87.7234 40.2447 87.2757C39.3806 86.8132 38.5571 86.2896 38.0081 85.2577C37.6855 84.6667 37.5828 83.9804 37.7183 83.3209C37.8901 82.6523 38.2801 82.0602 38.8265 81.6383C39.833 80.8199 41.1648 80.3624 43.1727 79.9456C46.8277 79.1932 48.1036 78.6798 48.8813 78.0648C49.5422 77.5361 50.2894 76.4686 51.6111 74.9029C51.6048 74.8335 51.5997 74.7641 51.5958 74.6945C49.2305 74.6279 46.9141 74.0045 44.835 72.8747C44.0725 73.6778 40.1787 77.7953 35.4308 83.509C33.4331 85.8982 31.2269 87.2707 28.8987 87.3672C26.5706 87.4689 24.4661 86.2947 22.6767 84.5612C19.1032 81.0893 16.2514 75.1164 13.7657 68.3657C11.285 61.6151 9.26691 54.0968 7.83341 47.6918C6.39482 41.2868 5.54591 36.1222 5.42391 33.6313C4.89016 23.0478 7.36574 15.9159 11.6103 11.4172C15.86 6.91842 21.6855 5.2155 27.3636 4.89017C37.5557 4.30558 47.2343 7.85883 49.1914 8.62133C52.9632 6.05933 57.8229 4.46317 63.8924 4.56483C66.7738 4.60525 69.6411 4.97708 72.4375 5.673L72.5392 5.62725C73.77 5.19459 75.0242 4.83141 76.2957 4.53942C79.7483 3.73399 83.2783 3.30617 86.8233 3.2635L86.8284 3.25333ZM87.6011 6.65917H86.8589C83.9466 6.69978 81.0453 7.02669 78.1969 7.63517C84.5307 10.4412 89.3142 14.762 92.6844 19.0727C95.0255 22.0573 96.9605 25.3393 98.4387 28.8327C98.9979 30.1747 99.3741 31.3082 99.5876 32.1877C99.6943 32.6299 99.7655 33.001 99.7909 33.3873C99.8011 33.5805 99.8112 33.7787 99.7299 34.1193C99.7299 34.1346 99.7045 34.1702 99.6994 34.1854C99.8519 38.6384 98.7488 41.6579 98.6167 45.9076C98.515 48.9881 99.3029 52.6074 99.4961 56.5572C99.6791 60.268 99.2317 64.3448 96.8222 68.3454C97.0256 68.5894 97.2086 68.8334 97.4017 69.0774C103.776 59.0378 108.372 47.9307 110.822 38.4605C112.133 33.3619 112.83 28.7412 112.891 25.0812C112.941 21.4212 112.26 18.7677 111.391 17.6595C104.569 8.9365 95.3379 6.72017 87.6011 6.65917ZM63.2519 7.9605C57.2434 7.97575 52.9327 9.7905 49.6642 12.5101C46.2939 15.3212 44.0318 19.1692 42.5475 23.1088C40.7836 27.7855 40.1787 32.3097 39.9397 35.38L40.0058 35.3393C41.8206 34.3227 44.2047 33.306 46.7565 32.7163C49.3083 32.1317 52.0584 31.9487 54.5492 32.9146C57.0401 33.8804 59.0988 36.1527 59.8461 39.5992C63.4247 56.1556 58.7328 62.3115 57.0045 66.9577C56.3488 68.6417 55.7871 70.3608 55.3219 72.1071C55.5405 72.0562 55.7591 71.9952 55.9777 71.9749C57.1977 71.8732 58.1533 72.2799 58.7227 72.5239C60.4612 73.2457 61.6557 74.7606 62.3013 76.4889C62.4691 76.9413 62.5911 77.4293 62.6622 77.9326C62.7374 78.1392 62.7719 78.3584 62.7639 78.5782C62.5712 84.9109 62.5932 91.2484 62.83 97.5797C62.9469 100.314 63.1197 102.724 63.3383 104.625C63.5569 106.521 63.867 107.965 64.0652 108.453C64.7159 110.08 65.6665 112.209 67.3847 113.658C69.1028 115.102 71.5682 116.068 76.0721 115.102C79.9761 114.263 82.3856 113.099 83.997 111.427C85.6033 109.754 86.5641 107.426 87.1792 103.863C88.0992 98.5252 89.9496 83.0464 90.1732 80.1337C90.0716 77.9377 90.3969 76.25 91.0984 74.9639C91.8202 73.6422 92.9386 72.834 93.9044 72.3968C94.3873 72.1782 94.8397 72.0308 95.2108 71.9241C94.818 71.3595 94.406 70.8085 93.9756 70.272C92.5831 68.5832 91.4427 66.7014 90.5901 64.6854C90.1817 63.8529 89.746 63.034 89.2837 62.2302C88.6076 61.0102 87.7536 59.4852 86.8589 57.7721C85.0696 54.3408 83.1227 50.1827 82.1111 46.1312C81.1046 42.0849 80.9572 37.8962 83.5395 34.9428C85.827 32.3198 89.8428 31.232 95.8717 31.842C95.6937 31.3082 95.587 30.866 95.2871 30.1543C93.9241 26.9462 92.1449 23.9313 89.9953 21.1873C84.8866 14.6553 76.616 8.17908 63.8365 7.97067H63.2519V7.9605ZM29.4884 8.22483C28.8428 8.22483 28.1972 8.24517 27.5567 8.28075C22.4226 8.57558 17.568 10.065 14.0961 13.7453C10.6191 17.4257 8.33157 23.4596 8.82974 33.4483C8.92632 35.3393 9.74982 40.6362 11.163 46.9293C12.5711 53.2225 14.5688 60.6289 16.9682 67.1712C19.3726 73.7134 22.2853 79.4067 25.0507 82.1009C26.4435 83.448 27.6533 83.9919 28.7513 83.9462C29.8544 83.8953 31.1812 83.2599 32.8027 81.313C35.7592 77.7467 38.8277 74.2747 42.0036 70.9023C39.7502 68.9458 38.0256 66.4534 36.9889 63.655C35.9521 60.8566 35.6366 57.8423 36.0713 54.8898C36.5949 51.1332 36.6661 47.6207 36.6051 44.8452C36.5441 42.1408 36.3509 40.3413 36.3509 39.2179C36.35 39.1857 36.35 39.1535 36.3509 39.1213V39.0959L36.3458 39.0654C36.3428 33.2135 37.3612 27.4008 39.3552 21.899C40.7785 18.117 42.8982 14.274 46.0753 11.163C42.9542 10.1362 37.4133 8.5705 31.415 8.27567C30.7716 8.24263 30.1326 8.22568 29.4884 8.22483ZM92.5116 35.075C89.06 35.1207 87.1232 36.0103 86.1066 37.1744C84.668 38.8265 84.5307 41.724 85.4254 45.2925C86.315 48.8661 88.1552 52.8616 89.8835 56.181C90.7477 57.8432 91.5864 59.3377 92.2625 60.5527C92.9436 61.7727 93.4418 62.6368 93.7468 63.3739C94.0264 64.0551 94.3365 64.6549 94.6517 65.2141C95.9886 62.3928 96.2275 59.6224 96.0902 56.7351C95.9123 53.1615 95.0837 49.5066 95.2057 45.8059C95.343 41.48 96.197 38.6638 96.2732 35.319C95.0258 35.1574 93.7694 35.0759 92.5116 35.075ZM50.6554 35.6596C49.601 35.6694 48.5508 35.7956 47.5241 36.0357C45.4777 36.5329 43.5067 37.3005 41.663 38.3182C41.0393 38.6527 40.4458 39.0405 39.8889 39.4772L39.7771 39.5788C39.8076 40.321 39.955 42.1205 40.016 44.7689C40.077 47.6664 40.0058 51.362 39.4467 55.3626C38.2317 64.0551 44.5402 71.2531 51.9517 71.2632C52.3837 69.479 53.0954 67.6693 53.8071 65.7631C55.8709 60.2019 59.9325 56.1454 56.5114 40.3159C55.9522 37.7234 54.8441 36.6762 53.3191 36.0866C52.4643 35.7843 51.5618 35.6396 50.6554 35.6596ZM90.9002 36.6966H91.1543C91.4898 36.7067 91.7999 36.7423 92.0693 36.8084C92.3438 36.8694 92.5777 36.9609 92.7708 37.088C92.8699 37.1494 92.9551 37.2308 93.0207 37.3272C93.0864 37.4235 93.1311 37.5325 93.1521 37.6472L93.147 37.6878C93.1569 37.9291 93.095 38.168 92.9691 38.3741C92.8192 38.6531 92.6309 38.9097 92.4099 39.1366C91.8942 39.7044 91.2036 40.0837 90.4477 40.2142C89.7122 40.3031 88.9698 40.1166 88.3636 39.6907C88.1154 39.5237 87.8928 39.3217 87.7027 39.0908C87.5382 38.9095 87.4274 38.686 87.3825 38.4452C87.3719 38.328 87.3853 38.2098 87.422 38.0979C87.4588 37.986 87.5179 37.8828 87.596 37.7946C87.7628 37.6051 87.9648 37.4497 88.1907 37.3371C88.6787 37.0626 89.3396 36.8592 90.0868 36.7474C90.3664 36.7067 90.6409 36.6864 90.9002 36.6813V36.6966ZM51.1485 37.5506C51.4179 37.5506 51.7026 37.576 51.9923 37.6167C52.7701 37.7234 53.4614 37.9318 53.9901 38.2368C54.2479 38.3714 54.4774 38.5543 54.6661 38.7757C54.7689 38.8931 54.8463 39.0304 54.8936 39.1791C54.9408 39.3278 54.9568 39.4847 54.9407 39.6398C54.8918 39.9321 54.7594 40.204 54.5594 40.4227C54.3514 40.678 54.1064 40.9007 53.8325 41.0835C53.1714 41.5519 52.3593 41.7567 51.5552 41.6579C50.7333 41.5228 49.9811 41.1145 49.4202 40.4989C49.1815 40.251 48.9795 39.9703 48.8203 39.6652C48.6528 39.3968 48.5794 39.0802 48.6119 38.7655C48.6882 38.2165 49.1406 37.9318 49.5828 37.7743C50.0866 37.6133 50.6152 37.5444 51.1434 37.5709L51.1485 37.5506ZM97.2035 74.8775L97.1882 74.8826C96.441 75.152 95.8259 75.2638 95.3074 75.4926C94.7831 75.6944 94.3508 76.0814 94.0925 76.5804C93.7722 77.165 93.4977 78.202 93.5791 79.9659C93.8091 80.1243 94.0631 80.2444 94.3314 80.3217C95.2007 80.5861 96.6596 80.7589 98.2862 80.7335C101.529 80.6979 105.52 79.9405 107.64 78.9543C109.379 78.1465 110.993 77.0937 112.433 75.8281C105.352 77.2921 101.346 76.9007 98.8912 75.8891C98.2815 75.6354 97.7127 75.2979 97.2035 74.8775ZM56.3792 75.3553H56.2725C56.0031 75.3807 55.6117 75.4722 54.8542 76.311C53.0852 78.2935 52.4651 79.5389 51.0062 80.703C49.5472 81.862 47.6511 82.4822 43.8641 83.2599C42.6644 83.5039 41.9782 83.7733 41.5207 83.9919C41.6681 84.1139 41.6528 84.1444 41.8765 84.2613C42.4306 84.5663 43.1422 84.8357 43.7167 84.9832C45.3433 85.3898 48.0172 85.8626 50.8079 85.3898C53.5987 84.912 56.5012 83.5751 58.9768 80.1032C59.4038 79.5033 59.4496 78.6188 59.0988 77.6682C58.743 76.7177 57.9652 75.8992 57.4162 75.6705C57.0896 75.5128 56.7392 75.4098 56.3792 75.3655V75.3553Z" fill="black"/>
</g>
<defs>
<clipPath id="clip0_20_41">
<rect width="122" height="122" fill="white"/>
</clipPath>
</defs>
</svg>
