<svg width="140" height="119" viewBox="0 0 140 119" fill="none" xmlns="http://www.w3.org/2000/svg">
<path d="M82.5015 59.2124C82.5015 52.6669 76.9047 47.3599 69.9999 47.3599C63.0961 47.3599 57.4984 52.6669 57.4984 59.2124C57.4984 65.7588 63.0961 71.0654 69.9999 71.0654C76.9047 71.0654 82.5015 65.7588 82.5015 59.2124Z" fill="#161616"/>
<path fill-rule="evenodd" clip-rule="evenodd" d="M110.602 37.2072C113.242 27.0361 116.56 8.17494 104.862 1.78039C93.2181 -4.58628 78.0659 7.61343 70.0649 14.9363C62.0872 7.6864 46.5094 -4.46116 34.8209 1.9537C23.1817 8.34172 26.771 26.8902 29.4695 37.1251C18.6121 40.0488 0 46.346 0 59.2121C0 72.0416 18.5927 78.8928 29.3859 81.8137C26.6774 92.1052 23.2678 110.389 34.9219 116.763C46.6541 123.176 62.1833 111.318 70.2585 103.915C78.3109 111.281 93.3175 123.217 104.964 116.825C116.646 110.413 113.603 91.8049 110.905 81.5107C121.367 78.5834 140 71.8814 140 59.2121C140 46.4697 121.288 40.1213 110.602 37.2072ZM109.276 76.0554C107.504 70.7374 105.112 65.0822 102.186 59.2403C104.979 53.5363 107.278 47.9541 109 42.6703C116.834 44.8237 134.02 49.7452 134.02 59.2121C134.02 68.7679 117.528 73.7359 109.276 76.0554ZM101.967 111.918C93.2773 116.686 80.3698 105.272 74.4231 99.8476C78.3683 95.7567 82.3107 91.0009 86.1583 85.7199C92.9269 85.1508 99.3207 84.2199 105.119 82.9491C107.019 90.2306 110.694 107.128 101.967 111.918ZM37.9102 111.85C29.22 107.099 33.192 90.7837 35.1847 83.2028C40.9189 84.4057 47.2668 85.2709 54.0512 85.7924C57.9241 90.9598 61.9808 95.7097 66.0688 99.8696C61.0181 104.502 46.641 116.623 37.9102 111.85ZM5.98029 59.2121C5.98029 49.6206 23.063 44.7347 31.0755 42.5868C32.8277 47.9892 35.1258 53.6381 37.8991 59.3503C35.0898 65.1475 32.7589 70.8857 30.9906 76.352C23.3506 74.2785 5.98029 68.8094 5.98029 59.2121ZM37.8173 6.861C46.543 2.07243 60.0819 13.7346 65.8742 18.9836C61.8072 23.1244 57.7878 27.8385 53.9481 32.9762C47.3639 33.5548 41.0608 34.4839 35.2664 35.7287C33.0925 27.4739 29.101 11.6444 37.8173 6.861ZM90.4367 39.1393C94.9037 39.6737 99.1835 40.3846 103.202 41.2544C101.996 44.9205 100.492 48.754 98.721 52.6839C96.1539 48.0659 93.3982 43.5405 90.4367 39.1393ZM70.0667 23.0357C72.8252 25.8688 75.5879 29.0327 78.3057 32.4651C72.793 32.2178 67.2714 32.2169 61.7587 32.4615C64.4789 29.0609 67.2653 25.9017 70.0667 23.0357ZM41.3303 52.6798C39.5887 48.7636 38.0986 44.9132 36.8817 41.1946C40.8762 40.3472 45.136 39.6545 49.574 39.1288C46.6041 43.5205 43.8531 48.044 41.3303 52.6798ZM49.7014 79.7001C45.1169 79.215 40.7925 78.5574 36.7993 77.7333C38.0354 73.9495 39.5583 70.016 41.3371 66.0154C43.8947 70.6995 46.6877 75.2669 49.7014 79.7001ZM70.2324 95.7891C67.3979 92.8892 64.5703 89.6817 61.8091 86.2319C67.3531 86.4381 72.9078 86.4386 78.4513 86.204C75.7251 89.7168 72.9722 92.9289 70.2324 95.7891ZM98.7779 65.8119C100.649 69.8558 102.227 73.7679 103.48 77.4878C99.4201 78.3662 95.0376 79.0735 90.4199 79.5988C93.4033 75.114 96.2029 70.5184 98.7779 65.8119ZM82.8207 80.286C74.3405 80.8605 65.8075 80.8541 57.3244 80.333C52.5042 73.6574 48.2132 66.6369 44.5093 59.3485C48.1955 52.0752 52.4552 45.0683 57.2525 38.4033C65.7417 37.795 74.2831 37.7932 82.7722 38.4069C87.5285 45.0715 91.7817 52.0601 95.5533 59.2677C91.8265 66.5374 87.5443 73.5584 82.8207 80.286ZM101.875 6.69243C110.603 11.4653 106.718 28.4164 104.811 35.7876C99.0029 34.5167 92.6954 33.5712 86.0921 32.9835C82.2449 27.7903 78.2591 23.068 74.2579 18.9807C80.1243 13.6186 93.2311 1.96625 101.875 6.69243Z" fill="#161616"/>
</svg>
