<svg width="150" height="90" viewBox="0 0 150 90" fill="none" xmlns="http://www.w3.org/2000/svg">
<path d="M75 0C55 0 42.5 10 37.5 30C45 20 53.75 16.25 63.75 18.75C69.4562 20.175 73.5312 24.3125 78.05 28.9C85.4062 36.3625 93.9125 45 112.5 45C132.5 45 145 35 150 15C142.5 25 133.75 28.75 123.75 26.25C118.044 24.825 113.969 20.6875 109.45 16.1C102.1 8.6375 93.5938 0 75 0ZM37.5 45C17.5 45 5 55 0 75C7.5 65 16.25 61.25 26.25 63.75C31.9563 65.175 36.0312 69.3125 40.55 73.9C47.9062 81.3625 56.4125 90 75 90C95 90 107.5 80 112.5 60C105 70 96.25 73.75 86.25 71.25C80.5437 69.825 76.4687 65.6875 71.95 61.1C64.6 53.6375 56.0938 45 37.5 45Z" fill="#161616"/>
</svg>
