<svg width="130" height="130" viewBox="0 0 130 130" fill="none" xmlns="http://www.w3.org/2000/svg">
<path d="M0 65V130H130V0H0V65ZM104.756 59.8162C108.058 60.6409 110.573 62.1237 112.901 64.5125C114.087 65.78 115.863 68.1078 116.013 68.6806C116.053 68.8512 110.407 72.6375 106.978 74.7541C106.852 74.8394 106.344 74.3112 105.792 73.4825C104.122 71.0491 102.363 69.9928 99.6775 69.8019C95.7409 69.5459 93.2019 71.6016 93.2222 75.0506C93.2019 75.8956 93.3928 76.7447 93.7706 77.4841C94.64 79.2838 96.2691 80.3603 101.302 82.5419C110.614 86.5394 114.591 89.1841 117.065 92.9297C119.836 97.1181 120.449 103.805 118.588 108.798C116.517 114.193 111.394 117.873 104.199 119.08C101.977 119.482 96.6875 119.417 94.2947 118.974C89.0703 118.044 84.1181 115.46 81.0713 112.076C79.8647 110.764 77.5369 107.315 77.6872 107.083C77.7522 106.998 78.2803 106.661 78.8734 106.32C79.4666 105.978 81.6441 104.711 83.6997 103.525L87.4453 101.347L88.2294 102.509C89.3303 104.179 91.7191 106.466 93.1612 107.226C97.3091 109.427 103.001 109.111 105.816 106.592C106.958 105.641 107.595 104.179 107.51 102.7C107.51 101.197 107.319 100.522 106.535 99.3972C105.519 97.9591 103.468 96.7322 97.6056 94.1931C90.8984 91.2925 87.9978 89.5172 85.3775 86.6613C83.7281 84.7763 82.5013 82.5581 81.8025 80.1653C81.315 78.325 81.1891 73.71 81.5709 71.8697C82.9481 65.3737 87.8556 60.8684 94.9 59.5359C97.1872 59.0931 102.517 59.2597 104.76 59.8122L104.756 59.8162ZM74.2462 65.2559L74.2869 70.5656H57.3584V118.662H45.3822V70.5656H28.4781V65.3616C28.4781 62.4609 28.5431 60.0519 28.6244 59.9869C28.6894 59.9016 38.9716 59.8609 51.4556 59.8812L74.1813 59.9463L74.2462 65.2559Z" fill="#161616"/>
</svg>
